<?xml version="1.0" encoding="UTF-8" standalone="no" ?>
<!DOCTYPE svg PUBLIC "-//W3C//DTD SVG 1.1//EN" "http://www.w3.org/Graphics/SVG/1.1/DTD/svg11.dtd">
<svg xmlns="http://www.w3.org/2000/svg" xmlns:xlink="http://www.w3.org/1999/xlink" version="1.1" width="1280" height="1024" viewBox="0 0 1280 1024" xml:space="preserve">
<desc>Created with Fabric.js 5.3.0</desc>
<defs>
</defs>
<g transform="matrix(1 0 0 1 640 512)" id="background-logo"  >
<rect style="stroke: none; stroke-width: 0; stroke-dasharray: none; stroke-linecap: butt; stroke-dashoffset: 0; stroke-linejoin: miter; stroke-miterlimit: 4; fill: rgb(221,221,221); fill-rule: nonzero; opacity: 1;"  paint-order="stroke"  x="-640" y="-512" rx="0" ry="0" width="1280" height="1024" />
</g>
<g transform="matrix(1.3694236083695226 0 0 1.3694236083695226 640 431.2203228668112)" id="logo-logo"  >
<g style=""  paint-order="stroke"   >
		<g transform="matrix(0 -1.0030806221353972 1.003080622135397 0 0 0)"  >
<g style=""  paint-order="stroke"   >
		<g transform="matrix(1 0 0 1 0 0)"  >
<path style="stroke: none; stroke-width: 1; stroke-dasharray: none; stroke-linecap: butt; stroke-dashoffset: 0; stroke-linejoin: miter; stroke-miterlimit: 4; fill: rgb(79,79,79); fill-rule: nonzero; opacity: 1;"  paint-order="stroke"  transform=" translate(-99.6350905431677, -100.00380481127695)" d="M 127.86 19.5 C 93.7 7 53.9 18.09 31 46.22 C 8.100000000000001 74.35 4.75 115.22 23.68 146.45999999999998 C 42.61 177.69999999999996 79.43 193.79 115.16 187 C 155.85 179.25 185 142.46 185.45 101.5 C 185.12839348875255 64.86458773443763 162.21218599238836 32.23515528606349 127.85999999999999 19.5 Z M 123.86 172.39 C 94.02129497970246 182.8995662155028 60.79234839522026 173.88198622024095 40.36 149.73 C 19.89 125.41 17.36 89.58999999999999 33.79 62.47999999999999 C 50 35.76 82.19 21.34 112.89 27.54 C 148.07999999999998 34.64 173.25 65.77 173.65 101.49000000000001 C 173.3 132.84 153.73 161.78 123.9 172.39 Z M 98.3 195.86 C 46.42014126230071 195.28686884901435 4.503131150985666 153.3698587376993 3.930000000000007 101.49000000000001 C 3.91 99 0 99 0 101.49 C 0.6053904839655958 155.52684351276318 44.26315648723682 199.1846095160344 98.3 199.79 C 100.84 199.82 100.84 195.88 98.3 195.86 Z M 97.94 7.08 C 150.0407591885915 7.653181812199722 192.13681818780023 49.74924081140845 192.70999999999998 101.84999999999994 C 192.70999999999998 106.07 199.30999999999997 106.08 199.26999999999998 101.85 C 198.63776311364927 46.15096926986165 153.63903073013836 1.1522368863507353 97.94000000000003 0.5200000000000102 C 93.72 0.48 93.72 7 97.94 7.08 Z M 191.81 109.31 C 190.15569486274438 110.96636767897049 190.15680947168585 113.65002670160582 191.81248992231752 115.305019638293 C 193.4681703729492 116.9600125749802 196.1518296270508 116.9600125749802 197.80751007768248 115.30501963829302 C 199.46319052831416 113.65002670160582 199.46430513725562 110.9663676789705 197.81 109.31 C 197.01733126629335 108.50875659354612 195.93708239174512 108.05789487684453 194.81 108.05789487684453 C 193.68291760825488 108.05789487684453 192.60266873370665 108.50875659354612 191.81 109.31 Z M 193 119 C 192.0009782553198 119 191.10032662495868 119.6017961796145 190.71801755469713 120.52477192205824 C 190.33570848443554 121.44774766450196 190.54703120025306 122.51013869931461 191.25344625046924 123.21655374953077 C 191.9598613006854 123.92296879974694 193.02225233549802 124.13429151556446 193.94522807794178 123.75198244530287 C 194.8682038203855 123.3696733750413 195.47 122.46902174468018 195.47 121.47 C 195.47 120.10585666791793 194.36414333208205 119 193 119 Z M 2.19 97.36 C 3.377237421022201 97.47583427925497 4.433605137889001 96.60733772791016 4.549524238909743 95.42010858568676 C 4.665443339930484 94.23287944346336 3.7970222628904446 93.17644967964146 2.609801405525909 93.06044575744664 C 1.4225805481613736 92.94444183525181 0.36608874277677783 93.81278743355435 0.25 95 C 0.19424159700637605 95.57022821623849 0.3673213896172156 96.13924765575658 0.7311539176805524 96.58184805072023 C 1.0949864457438891 97.02444844568387 1.619759845898605 97.30436381798368 2.1899999999999995 97.36 Z M 3.34 91.2 C 4.043322666334438 91.26833565957735 4.668968613970261 90.75380436419009 4.7377120726268425 90.05052143944246 C 4.806455531283424 89.34723851469482 4.292287093336135 88.7212943293677 3.5890441466244996 88.65214309474395 C 2.885801199912863 88.5829918601202 2.259558987341717 89.09679726776011 2.19 89.8 C 2.1259820645659135 90.50262910580793 2.6383161753112616 91.1263401971501 3.34 91.2 Z M 89.12 8.06 C 91.21960188787928 7.0242084966374065 92.08232920150375 4.482714919048352 91.04716256998051 2.382804880259739 C 90.01199593845726 0.2828948414711263 87.47075921466711 -0.5805887636195433 85.37054121094003 0.45395290438859437 C 83.27032320721297 1.488494572396732 82.40608338712738 4.0294742173326235 83.44 6.129999999999999 C 83.93689841111302 7.139508804592485 84.81467909847872 7.910114453423454 85.88003155251198 8.27210921333264 C 86.94538400654523 8.634103973241828 88.11093521753321 8.557799480013433 89.12 8.06 Z M 79.32000000000001 8.93 C 80.52891625063141 8.320149836094815 81.0177184279693 6.847998382460929 80.41365536617494 5.636180103661879 C 79.80959230438057 4.424361824862828 78.33979476342945 3.928526509843171 77.12510215921824 4.52678866035119 C 75.91040955500705 5.12505081085921 75.40755243734219 6.592460838840621 76 7.809999999999999 C 76.29020111250767 8.400231449911885 76.80382267052421 8.850345797101834 77.42703158363435 9.06058494851248 C 78.05024049674446 9.270824099923127 78.73156346004824 9.223823567154486 79.32 8.93 Z M 104.18 195.73000000000002 C 103.32933413527176 195.93297552594734 102.68500609907414 196.62886856753977 102.54799260513717 197.49261550966264 C 102.4109791112002 198.35636245178551 102.80832142399125 199.21749242457295 103.5544141114768 199.67375679884296 C 104.30050679896236 200.130021173113 105.24809947652903 200.09137067519816 105.95455529768515 199.57585961779776 C 106.66101111884126 199.06034856039736 106.9869025122911 198.1697192642015 106.78 197.32000000000002 C 106.49869360245116 196.16471453491062 105.33657247113472 195.454032766144 104.18 195.73 Z M 109.73 195.87 C 109.39886766881075 195.94570972959795 109.11233011625058 196.15190836236818 108.93535778110838 196.44184176249473 C 108.7583854459662 196.7317751626213 108.70597133826567 197.08088031368246 108.79 197.41 C 108.91025955170797 197.91433990206443 109.32288655762625 198.2963175168595 109.83499147671662 198.37737088467847 C 110.34709639580701 198.45842425249742 110.85751518279285 198.22254164163024 111.12764385842206 197.7799904070888 C 111.39777253405127 197.33743917254733 111.37424838190937 196.7756433390957 111.0680681686764 196.3572239638082 C 110.76188795544344 195.9388045885207 110.23353621817351 195.74641855487621 109.73 195.87 Z" stroke-linecap="round" />
</g>
</g>
</g>
</g>
</g>
<g transform="matrix(1.9211538461538462 0 0 1.9211538461538462 638.5351942503926 612.6269558287104)" id="text-logo"  >
<g style=""  paint-order="stroke"   >
		<g transform="matrix(1 0 0 1 -5.684342e-14 0)" id="text-logo-path-0"  >
<path style="stroke: none; stroke-width: 0; stroke-dasharray: none; stroke-linecap: butt; stroke-dashoffset: 0; stroke-linejoin: miter; stroke-miterlimit: 4; fill: rgb(79,79,79); fill-rule: nonzero; opacity: 1;"  paint-order="stroke"  transform=" translate(-129.645, 11.834999999999999)" d="M 12.65 -2.14 L 12.65 -19.04 L 16.63 -19.04 C 17.95 -19.04 19.01 -20.09 19.01 -21.42 C 19.01 -22.75 17.95 -23.8 16.63 -23.8 L 3.88 -23.8 C 2.55 -23.8 1.5 -22.75 1.5 -21.42 C 1.5 -20.09 2.55 -19.04 3.88 -19.04 L 7.89 -19.04 L 7.89 -2.14 C 7.89 -0.82 8.94 0.24 10.27 0.24 C 11.59 0.24 12.65 -0.82 12.65 -2.14 Z M 25.09 0 L 36.01 0 C 37.33 0 38.39 -1.05 38.39 -2.38 C 38.39 -3.71 37.33 -4.76 36.01 -4.76 L 27.44 -4.76 L 27.44 -9.86 L 34.65 -9.86 C 35.97 -9.86 37.03 -10.91 37.03 -12.24 C 37.03 -13.57 35.97 -14.62 34.65 -14.62 L 27.44 -14.62 L 27.44 -19.04 L 36.01 -19.04 C 37.33 -19.04 38.39 -20.09 38.39 -21.42 C 38.39 -22.75 37.33 -23.8 36.01 -23.8 L 25.09 -23.8 L 25.06 -23.8 C 23.73 -23.8 22.68 -22.75 22.68 -21.42 L 22.68 -2.38 C 22.68 -1.05 23.73 0 25.06 0 Z M 44.47 0 L 55.39 0 C 56.71 0 57.77 -1.05 57.77 -2.38 C 57.77 -3.71 56.71 -4.76 55.39 -4.76 L 46.82 -4.76 L 46.82 -9.86 L 54.03 -9.86 C 55.35 -9.86 56.41 -10.91 56.41 -12.24 C 56.41 -13.57 55.35 -14.62 54.03 -14.62 L 46.82 -14.62 L 46.82 -19.04 L 55.39 -19.04 C 56.71 -19.04 57.77 -20.09 57.77 -21.42 C 57.77 -22.75 56.71 -23.8 55.39 -23.8 L 44.47 -23.8 L 44.44 -23.8 C 43.11 -23.8 42.06 -22.75 42.06 -21.42 L 42.06 -2.38 C 42.06 -1.05 43.11 0 44.44 0 Z M 66.2 -2.01 L 66.2 -13.87 C 66.2 -16.8 68.58 -19.18 71.5 -19.18 C 74.39 -19.18 76.77 -16.8 76.77 -13.87 L 76.77 -2.01 C 76.77 -0.68 77.83 0.37 79.15 0.37 C 80.48 0.37 81.53 -0.68 81.53 -2.01 L 81.53 -13.87 C 81.53 -19.45 77.04 -23.94 71.5 -23.94 C 65.93 -23.94 61.44 -19.45 61.44 -13.87 L 61.44 -2.01 C 61.44 -0.68 62.49 0.37 63.82 0.37 C 65.14 0.37 66.2 -0.68 66.2 -2.01 Z M 100.27 -21.83 L 99.79 -15.3 C 99.79 -15.06 99.72 -14.79 99.52 -14.38 L 95.1 -6.12 L 90.68 -14.38 C 90.47 -14.79 90.41 -15.06 90.41 -15.3 L 89.93 -21.83 C 89.86 -23.02 88.84 -24.04 87.55 -24.04 C 86.09 -24.04 85.1 -22.81 85.2 -21.52 L 85.65 -15.03 C 85.71 -14.11 85.99 -13.16 86.46 -12.21 L 92.04 -1.73 C 93.4 0.78 96.8 0.78 98.16 -1.73 L 103.73 -12.21 C 104.21 -13.16 104.48 -14.11 104.55 -15.03 L 104.99 -21.52 C 105.09 -22.81 104.11 -24.04 102.65 -24.04 C 101.35 -24.04 100.33 -23.02 100.27 -21.83 Z M 111.08 0 L 121.99 0 C 123.32 0 124.37 -1.05 124.37 -2.38 C 124.37 -3.71 123.32 -4.76 121.99 -4.76 L 113.42 -4.76 L 113.42 -9.86 L 120.63 -9.86 C 121.96 -9.86 123.01 -10.91 123.01 -12.24 C 123.01 -13.57 121.96 -14.62 120.63 -14.62 L 113.42 -14.62 L 113.42 -19.04 L 121.99 -19.04 C 123.32 -19.04 124.37 -20.09 124.37 -21.42 C 124.37 -22.75 123.32 -23.8 121.99 -23.8 L 111.08 -23.8 L 111.04 -23.8 C 109.72 -23.8 108.66 -22.75 108.66 -21.42 L 108.66 -2.38 C 108.66 -1.05 109.72 0 111.04 0 Z M 132.8 -2.14 L 132.8 -7.62 L 136.99 -7.62 L 137.16 -7.31 L 141.1 -0.95 C 141.54 -0.27 142.26 0.14 143.11 0.14 C 144.4 0.14 145.49 -0.92 145.49 -2.24 C 145.49 -2.69 145.35 -3.13 145.11 -3.5 L 142.05 -8.43 C 144.87 -9.72 146.88 -12.48 146.88 -15.74 C 146.88 -20.26 142.94 -23.8 138.28 -23.8 L 130.42 -23.8 C 129.1 -23.8 128.04 -22.75 128.04 -21.42 L 128.04 -2.14 C 128.04 -0.82 129.1 0.24 130.42 0.24 C 131.75 0.24 132.8 -0.82 132.8 -2.14 Z M 132.8 -12.38 L 132.8 -19.04 L 138.28 -19.04 C 140.42 -19.04 142.12 -17.48 142.12 -15.74 C 142.12 -13.94 140.42 -12.38 138.28 -12.38 Z M 151.1 -3.98 C 153.2 -1.36 156.23 0.14 159.49 0.14 C 164.42 0.14 168.37 -2.86 168.37 -7.17 C 168.37 -11.83 164.83 -13.02 160.14 -14.04 C 157.15 -14.76 155.89 -15.2 155.89 -16.8 C 155.89 -18.09 157.05 -19.18 159.36 -19.18 C 160.96 -19.18 162.11 -18.6 162.96 -17.78 C 163.4 -17.37 163.98 -17.14 164.63 -17.14 C 165.92 -17.14 167.01 -18.19 167.01 -19.52 C 167.01 -20.2 166.74 -20.77 166.26 -21.22 C 164.66 -22.75 162.42 -23.94 159.36 -23.94 C 154.43 -23.94 151.13 -20.81 151.13 -16.8 C 151.13 -11.97 154.8 -10.44 159.05 -9.42 C 162.35 -8.7 163.61 -8.47 163.61 -7.17 C 163.61 -5.68 161.81 -4.62 159.49 -4.62 C 157.69 -4.62 156.06 -5.41 154.8 -6.97 C 154.36 -7.51 153.68 -7.85 152.93 -7.85 C 151.64 -7.85 150.55 -6.8 150.55 -5.47 C 150.55 -4.93 150.76 -4.39 151.1 -3.98 Z M 174.45 0 L 185.37 0 C 186.69 0 187.75 -1.05 187.75 -2.38 C 187.75 -3.71 186.69 -4.76 185.37 -4.76 L 176.8 -4.76 L 176.8 -9.86 L 184.01 -9.86 C 185.33 -9.86 186.39 -10.91 186.39 -12.24 C 186.39 -13.57 185.33 -14.62 184.01 -14.62 L 176.8 -14.62 L 176.8 -19.04 L 185.37 -19.04 C 186.69 -19.04 187.75 -20.09 187.75 -21.42 C 187.75 -22.75 186.69 -23.8 185.37 -23.8 L 174.45 -23.8 L 174.42 -23.8 C 173.09 -23.8 172.04 -22.75 172.04 -21.42 L 172.04 -2.38 C 172.04 -1.05 173.09 0 174.42 0 Z M 196.18 -2.14 L 196.18 -9.86 L 206.04 -9.86 L 206.04 -2.14 C 206.04 -0.82 207.09 0.24 208.42 0.24 C 209.75 0.24 210.8 -0.82 210.8 -2.14 L 210.8 -21.66 C 210.8 -22.98 209.75 -24.04 208.42 -24.04 C 207.09 -24.04 206.04 -22.98 206.04 -21.66 L 206.04 -14.62 L 196.18 -14.62 L 196.18 -21.66 C 196.18 -22.98 195.13 -24.04 193.8 -24.04 C 192.47 -24.04 191.42 -22.98 191.42 -21.66 L 191.42 -2.14 C 191.42 -0.82 192.47 0.24 193.8 0.24 C 195.13 0.24 196.18 -0.82 196.18 -2.14 Z M 229.81 -21.66 L 229.81 -9.93 C 229.81 -7 227.43 -4.62 224.54 -4.62 C 221.61 -4.62 219.23 -7 219.23 -9.93 L 219.23 -21.66 C 219.23 -22.98 218.18 -24.04 216.85 -24.04 C 215.53 -24.04 214.47 -22.98 214.47 -21.66 L 214.47 -9.93 C 214.47 -4.35 218.96 0.14 224.54 0.14 C 230.08 0.14 234.57 -4.35 234.57 -9.93 L 234.57 -21.66 C 234.57 -22.98 233.51 -24.04 232.19 -24.04 C 230.86 -24.04 229.81 -22.98 229.81 -21.66 Z M 243 -10.54 L 249.63 -10.54 C 251.53 -10.54 253.03 -9.15 253.03 -7.68 C 253.03 -6.15 251.53 -4.76 249.63 -4.76 L 243 -4.76 Z M 238.24 -2.38 C 238.24 -1.05 239.29 0 240.62 0 L 249.63 0 C 254.05 0 257.79 -3.33 257.79 -7.68 C 257.79 -9.96 256.73 -11.97 255.03 -13.36 C 255.88 -14.48 256.36 -15.81 256.36 -17.2 C 256.36 -20.74 253.2 -23.8 249.05 -23.8 L 240.62 -23.8 C 239.29 -23.8 238.24 -22.75 238.24 -21.42 Z M 243 -15.3 L 243 -19.04 L 249.05 -19.04 C 250.55 -19.04 251.6 -18.09 251.6 -17.2 C 251.6 -16.25 250.55 -15.3 249.05 -15.3 Z" stroke-linecap="round" />
</g>
</g>
</g>
<g transform="matrix(1.9211538461538462 0 0 1.9211538461538462 659.6823130432981 432.8436713025139)" id="tagline-3152705a-3764-47fc-9e9b-b1693627290e-logo"  >
<g style=""  paint-order="stroke"   >
		<g transform="matrix(1 0 0 1 0 0)" id="tagline-3152705a-3764-47fc-9e9b-b1693627290e-logo-path-0"  >
<path style="stroke: none; stroke-width: 0; stroke-dasharray: none; stroke-linecap: butt; stroke-dashoffset: 0; stroke-linejoin: miter; stroke-miterlimit: 4; fill: rgb(79,79,79); fill-rule: nonzero; opacity: 1;"  paint-order="stroke"  transform=" translate(-28.409027782777788, 22.87558346988959)" d="M 3.34 -35.85 C 1.7 -30.18 10.65 -27.03 12.41 -33.2 C 13.48 -36.92 15.88 -41.83 26.02 -41.83 C 32.76 -41.83 40.26 -36.54 50.72 -38.81 C 55.5 -39.88 54.12 -47.31 49.2 -46.24 C 42.34 -44.73 35.28 -48.13 26.02 -48.13 C 14.18 -48.13 6.05 -45.3 3.34 -35.85 Z M 31.82 -41.71 C 32.51 -46.43 25.07 -47.63 24.38 -42.71 C 20.66 -17.77 16.44 -8.69 13.29 -4.85 C 9.7 -0.5 16.32 5.29 20.1 0.69 C 25.7 -6.11 28.1 -16.25 31.82 -41.71 Z" stroke-linecap="round" />
</g>
</g>
</g>
<g transform="matrix(1.9211538461538462 0 0 1.9211538461538462 651.2720975529744 705.8379699733962)" id="tagline-347795ba-7209-4e75-b143-2a3769343477-logo"  >
<g style=""  paint-order="stroke"   >
		<g transform="matrix(1 0 0 1 0 0)" id="tagline-347795ba-7209-4e75-b143-2a3769343477-logo-path-0"  >
<path style="stroke: none; stroke-width: 0; stroke-dasharray: none; stroke-linecap: butt; stroke-dashoffset: 0; stroke-linejoin: miter; stroke-miterlimit: 4; fill: rgb(79,79,79); fill-rule: nonzero; opacity: 1;"  paint-order="stroke"  transform=" translate(-243.085, 5.55)" d="M 1.98 -0.58 L 1.98 -4.24 C 1.98 -4.64 2.3 -4.96 2.7 -4.96 L 6.21 -4.96 C 6.56 -4.96 6.85 -5.25 6.85 -5.6 C 6.85 -5.95 6.56 -6.24 6.21 -6.24 L 2.7 -6.24 C 2.3 -6.24 1.98 -6.56 1.98 -6.96 L 1.98 -9.2 C 1.98 -9.6 2.3 -9.92 2.7 -9.92 L 7.33 -9.92 C 7.68 -9.92 7.97 -10.21 7.97 -10.56 C 7.97 -10.91 7.68 -11.2 7.33 -11.2 L 1.58 -11.2 C 1.1 -11.2 0.7 -10.8 0.7 -10.32 L 0.7 -0.58 C 0.7 -0.22 0.99 0.06 1.34 0.06 C 1.7 0.06 1.98 -0.22 1.98 -0.58 Z M 16.05 -0.58 L 16.05 -2.7 C 16.05 -3.1 16.37 -3.42 16.77 -3.42 L 17.84 -3.42 C 18.24 -3.42 18.75 -3.17 18.99 -2.85 L 21.14 -0.06 C 21.25 0.1 21.42 0.18 21.63 0.18 C 21.97 0.18 22.27 -0.1 22.27 -0.46 C 22.27 -0.59 22.22 -0.74 22.14 -0.85 L 20.43 -3.07 C 20.19 -3.39 20.29 -3.78 20.66 -3.95 C 21.82 -4.62 22.62 -5.89 22.62 -7.31 C 22.62 -9.42 20.85 -11.2 18.74 -11.2 L 15.65 -11.2 C 15.17 -11.2 14.77 -10.8 14.77 -10.32 L 14.77 -0.58 C 14.77 -0.22 15.06 0.06 15.41 0.06 C 15.76 0.06 16.05 -0.22 16.05 -0.58 Z M 16.05 -5.42 L 16.05 -9.2 C 16.05 -9.6 16.37 -9.92 16.77 -9.92 L 18.74 -9.92 C 20.22 -9.92 21.34 -8.8 21.34 -7.31 C 21.34 -5.82 20.22 -4.7 18.74 -4.7 L 16.77 -4.7 C 16.37 -4.7 16.05 -5.02 16.05 -5.42 Z M 36.05 -1.28 L 31.42 -1.28 C 31.02 -1.28 30.7 -1.6 30.7 -2 L 30.7 -4.24 C 30.7 -4.64 31.02 -4.96 31.42 -4.96 L 34.93 -4.96 C 35.28 -4.96 35.57 -5.25 35.57 -5.6 C 35.57 -5.95 35.28 -6.24 34.93 -6.24 L 31.42 -6.24 C 31.02 -6.24 30.7 -6.56 30.7 -6.96 L 30.7 -9.2 C 30.7 -9.6 31.02 -9.92 31.42 -9.92 L 36.05 -9.92 C 36.4 -9.92 36.69 -10.21 36.69 -10.56 C 36.69 -10.91 36.4 -11.2 36.05 -11.2 L 30.3 -11.2 C 29.82 -11.2 29.42 -10.8 29.42 -10.32 L 29.42 -0.88 C 29.42 -0.4 29.82 0 30.3 0 L 36.05 0 C 36.4 0 36.69 -0.29 36.69 -0.64 C 36.69 -0.99 36.4 -1.28 36.05 -1.28 Z M 50.11 -1.28 L 45.49 -1.28 C 45.09 -1.28 44.77 -1.6 44.77 -2 L 44.77 -4.24 C 44.77 -4.64 45.09 -4.96 45.49 -4.96 L 48.99 -4.96 C 49.34 -4.96 49.63 -5.25 49.63 -5.6 C 49.63 -5.95 49.34 -6.24 48.99 -6.24 L 45.49 -6.24 C 45.09 -6.24 44.77 -6.56 44.77 -6.96 L 44.77 -9.2 C 44.77 -9.6 45.09 -9.92 45.49 -9.92 L 50.11 -9.92 C 50.46 -9.92 50.75 -10.21 50.75 -10.56 C 50.75 -10.91 50.46 -11.2 50.11 -11.2 L 44.37 -11.2 C 43.89 -11.2 43.49 -10.8 43.49 -10.32 L 43.49 -0.88 C 43.49 -0.4 43.89 0 44.37 0 L 50.11 0 C 50.46 0 50.75 -0.29 50.75 -0.64 C 50.75 -0.99 50.46 -1.28 50.11 -1.28 Z M 64.18 -1.28 L 59.55 -1.28 C 59.15 -1.28 58.83 -1.6 58.83 -2 L 58.83 -10.62 C 58.83 -10.98 58.54 -11.26 58.19 -11.26 C 57.84 -11.26 57.55 -10.98 57.55 -10.62 L 57.55 -0.88 C 57.55 -0.4 57.95 0 58.43 0 L 64.18 0 C 64.53 0 64.82 -0.29 64.82 -0.64 C 64.82 -0.99 64.53 -1.28 64.18 -1.28 Z M 81.52 -0.78 L 77.5 -10.64 C 77.17 -11.49 76.02 -11.49 75.68 -10.64 L 71.66 -0.78 C 71.63 -0.72 71.62 -0.62 71.62 -0.53 C 71.62 -0.19 71.89 0.11 72.26 0.11 C 72.5 0.11 72.74 -0.05 72.83 -0.27 L 73.42 -1.73 C 73.57 -2.1 74.02 -2.4 74.42 -2.4 L 78.77 -2.4 C 79.17 -2.4 79.62 -2.1 79.76 -1.73 L 80.35 -0.27 C 80.45 -0.05 80.67 0.11 80.93 0.11 C 81.28 0.11 81.57 -0.18 81.57 -0.53 C 81.57 -0.61 81.55 -0.7 81.52 -0.78 Z M 74.5 -4.35 L 76.32 -8.82 C 76.46 -9.18 76.72 -9.18 76.86 -8.82 L 78.69 -4.35 C 78.83 -3.98 78.64 -3.68 78.24 -3.68 L 74.94 -3.68 C 74.54 -3.68 74.35 -3.98 74.5 -4.35 Z M 89.65 -0.58 L 89.65 -8.38 C 89.65 -8.78 89.82 -8.83 90.05 -8.51 L 95.52 -0.37 C 95.98 0.37 97.17 0.03 97.17 -0.88 L 97.17 -10.62 C 97.17 -10.98 96.88 -11.26 96.53 -11.26 C 96.18 -11.26 95.89 -10.98 95.89 -10.62 L 95.89 -2.82 C 95.89 -2.42 95.71 -2.37 95.49 -2.69 L 90.02 -10.83 C 89.55 -11.57 88.37 -11.23 88.37 -10.32 L 88.37 -0.58 C 88.37 -0.22 88.66 0.06 89.01 0.06 C 89.36 0.06 89.65 -0.22 89.65 -0.58 Z M 88.96 -10.13 L 88.98 -10.11 Z M 96.56 -1.09 L 96.58 -1.07 Z M 112.32 -2.11 C 111.57 -1.54 110.67 -1.2 109.66 -1.2 C 107.23 -1.2 105.25 -3.18 105.25 -5.62 C 105.25 -8.02 107.23 -10 109.66 -10 C 110.66 -10 111.58 -9.65 112.32 -9.09 C 112.42 -9.02 112.56 -8.96 112.72 -8.96 C 113.06 -8.96 113.36 -9.25 113.36 -9.6 C 113.36 -9.79 113.25 -10 113.1 -10.11 C 112.13 -10.85 110.94 -11.28 109.66 -11.28 C 106.53 -11.28 103.97 -8.72 103.97 -5.62 C 103.97 -2.48 106.53 0.08 109.66 0.08 C 110.96 0.08 112.16 -0.37 113.1 -1.09 C 113.25 -1.2 113.36 -1.39 113.36 -1.6 C 113.36 -1.94 113.07 -2.24 112.72 -2.24 C 112.58 -2.24 112.43 -2.19 112.32 -2.11 Z M 121.44 -0.58 L 121.44 -10.62 C 121.44 -10.98 121.15 -11.26 120.8 -11.26 C 120.45 -11.26 120.16 -10.98 120.16 -10.62 L 120.16 -0.58 C 120.16 -0.22 120.45 0.06 120.8 0.06 C 121.15 0.06 121.44 -0.22 121.44 -0.58 Z M 129.52 -0.58 L 129.52 -8.38 C 129.52 -8.78 129.7 -8.83 129.92 -8.51 L 135.39 -0.37 C 135.86 0.37 137.04 0.03 137.04 -0.88 L 137.04 -10.62 C 137.04 -10.98 136.75 -11.26 136.4 -11.26 C 136.05 -11.26 135.76 -10.98 135.76 -10.62 L 135.76 -2.82 C 135.76 -2.42 135.58 -2.37 135.36 -2.69 L 129.89 -10.83 C 129.42 -11.57 128.24 -11.23 128.24 -10.32 L 128.24 -0.58 C 128.24 -0.22 128.53 0.06 128.88 0.06 C 129.23 0.06 129.52 -0.22 129.52 -0.58 Z M 128.83 -10.13 L 128.85 -10.11 Z M 136.43 -1.09 L 136.45 -1.07 Z M 150.11 -4.98 L 153.18 -4.98 C 153.58 -4.98 153.84 -4.66 153.74 -4.27 C 153.2 -2.43 151.57 -1.2 149.54 -1.2 C 147.02 -1.2 145.12 -3.1 145.12 -5.62 C 145.12 -8.1 147.02 -10 149.54 -10 C 150.56 -10 151.44 -9.68 152.19 -9.1 C 152.32 -9.01 152.45 -8.96 152.59 -8.96 C 152.93 -8.96 153.23 -9.25 153.23 -9.6 C 153.23 -9.79 153.12 -10 152.98 -10.11 C 152 -10.85 150.82 -11.28 149.54 -11.28 C 146.4 -11.28 143.84 -8.72 143.84 -5.62 C 143.84 -2.48 146.4 0.08 149.54 0.08 C 152.58 0.08 155.06 -2.32 155.22 -5.34 C 155.23 -5.86 154.82 -6.26 154.32 -6.26 L 150.11 -6.26 C 149.76 -6.26 149.47 -5.97 149.47 -5.62 C 149.47 -5.26 149.76 -4.98 150.11 -4.98 Z M 171.89 -0.58 L 171.89 -2.7 C 171.89 -3.1 172.21 -3.42 172.61 -3.42 L 174.58 -3.42 C 176.69 -3.42 178.46 -5.2 178.46 -7.31 C 178.46 -9.42 176.69 -11.2 174.58 -11.2 L 171.49 -11.2 C 171.01 -11.2 170.61 -10.8 170.61 -10.32 L 170.61 -0.58 C 170.61 -0.22 170.9 0.06 171.25 0.06 C 171.6 0.06 171.89 -0.22 171.89 -0.58 Z M 171.89 -5.42 L 171.89 -9.2 C 171.89 -9.6 172.21 -9.92 172.61 -9.92 L 174.58 -9.92 C 176.06 -9.92 177.18 -8.8 177.18 -7.31 C 177.18 -5.82 176.06 -4.7 174.58 -4.7 L 172.61 -4.7 C 172.21 -4.7 171.89 -5.02 171.89 -5.42 Z M 191.89 -1.28 L 187.26 -1.28 C 186.86 -1.28 186.54 -1.6 186.54 -2 L 186.54 -10.62 C 186.54 -10.98 186.26 -11.26 185.9 -11.26 C 185.55 -11.26 185.26 -10.98 185.26 -10.62 L 185.26 -0.88 C 185.26 -0.4 185.66 0 186.14 0 L 191.89 0 C 192.24 0 192.53 -0.29 192.53 -0.64 C 192.53 -0.99 192.24 -1.28 191.89 -1.28 Z M 209.23 -0.78 L 205.22 -10.64 C 204.88 -11.49 203.73 -11.49 203.39 -10.64 L 199.38 -0.78 C 199.34 -0.72 199.33 -0.62 199.33 -0.53 C 199.33 -0.19 199.6 0.11 199.97 0.11 C 200.21 0.11 200.45 -0.05 200.54 -0.27 L 201.14 -1.73 C 201.28 -2.1 201.73 -2.4 202.13 -2.4 L 206.48 -2.4 C 206.88 -2.4 207.33 -2.1 207.47 -1.73 L 208.06 -0.27 C 208.16 -0.05 208.38 0.11 208.64 0.11 C 208.99 0.11 209.28 -0.18 209.28 -0.53 C 209.28 -0.61 209.26 -0.7 209.23 -0.78 Z M 202.21 -4.35 L 204.03 -8.82 C 204.18 -9.18 204.43 -9.18 204.58 -8.82 L 206.4 -4.35 C 206.54 -3.98 206.35 -3.68 205.95 -3.68 L 202.66 -3.68 C 202.26 -3.68 202.06 -3.98 202.21 -4.35 Z M 219.1 -0.58 L 219.1 -9.2 C 219.1 -9.6 219.42 -9.92 219.82 -9.92 L 221.97 -9.92 C 222.32 -9.92 222.61 -10.21 222.61 -10.56 C 222.61 -10.91 222.32 -11.2 221.97 -11.2 L 214.96 -11.2 C 214.61 -11.2 214.32 -10.91 214.32 -10.56 C 214.32 -10.21 214.61 -9.92 214.96 -9.92 L 217.1 -9.92 C 217.5 -9.92 217.82 -9.6 217.82 -9.2 L 217.82 -0.58 C 217.82 -0.22 218.11 0.06 218.46 0.06 C 218.82 0.06 219.1 -0.22 219.1 -0.58 Z M 230.69 -0.58 L 230.69 -4.24 C 230.69 -4.64 231.01 -4.96 231.41 -4.96 L 234.91 -4.96 C 235.26 -4.96 235.55 -5.25 235.55 -5.6 C 235.55 -5.95 235.26 -6.24 234.91 -6.24 L 231.41 -6.24 C 231.01 -6.24 230.69 -6.56 230.69 -6.96 L 230.69 -9.2 C 230.69 -9.6 231.01 -9.92 231.41 -9.92 L 236.03 -9.92 C 236.38 -9.92 236.67 -10.21 236.67 -10.56 C 236.67 -10.91 236.38 -11.2 236.03 -11.2 L 230.29 -11.2 C 229.81 -11.2 229.41 -10.8 229.41 -10.32 L 229.41 -0.58 C 229.41 -0.22 229.7 0.06 230.05 0.06 C 230.4 0.06 230.69 -0.22 230.69 -0.58 Z M 248.21 -1.2 C 245.78 -1.2 243.79 -3.18 243.79 -5.62 C 243.79 -8.02 245.78 -10 248.21 -10 C 250.62 -10 252.61 -8.02 252.61 -5.62 C 252.61 -3.18 250.62 -1.2 248.21 -1.2 Z M 248.21 0.08 C 251.33 0.08 253.89 -2.48 253.89 -5.62 C 253.89 -8.72 251.33 -11.28 248.21 -11.28 C 245.07 -11.28 242.51 -8.72 242.51 -5.62 C 242.51 -2.48 245.07 0.08 248.21 0.08 Z M 261.97 -0.58 L 261.97 -2.7 C 261.97 -3.1 262.29 -3.42 262.69 -3.42 L 263.76 -3.42 C 264.16 -3.42 264.67 -3.17 264.91 -2.85 L 267.06 -0.06 C 267.17 0.1 267.34 0.18 267.55 0.18 C 267.89 0.18 268.19 -0.1 268.19 -0.46 C 268.19 -0.59 268.14 -0.74 268.06 -0.85 L 266.35 -3.07 C 266.11 -3.39 266.21 -3.78 266.58 -3.95 C 267.74 -4.62 268.54 -5.89 268.54 -7.31 C 268.54 -9.42 266.77 -11.2 264.66 -11.2 L 261.57 -11.2 C 261.09 -11.2 260.69 -10.8 260.69 -10.32 L 260.69 -0.58 C 260.69 -0.22 260.98 0.06 261.33 0.06 C 261.68 0.06 261.97 -0.22 261.97 -0.58 Z M 261.97 -5.42 L 261.97 -9.2 C 261.97 -9.6 262.29 -9.92 262.69 -9.92 L 264.66 -9.92 C 266.14 -9.92 267.26 -8.8 267.26 -7.31 C 267.26 -5.82 266.14 -4.7 264.66 -4.7 L 262.69 -4.7 C 262.29 -4.7 261.97 -5.02 261.97 -5.42 Z M 286.54 -0.58 L 286.54 -10.37 C 286.54 -11.25 285.38 -11.58 284.91 -10.83 L 281.33 -5.25 C 281.12 -4.91 280.77 -4.91 280.56 -5.25 L 276.98 -10.83 C 276.51 -11.58 275.34 -11.25 275.34 -10.37 L 275.34 -0.58 C 275.34 -0.22 275.63 0.06 275.98 0.06 C 276.34 0.06 276.62 -0.22 276.62 -0.58 L 276.62 -8.29 C 276.62 -8.69 276.8 -8.74 277.01 -8.4 L 280.26 -3.34 C 280.58 -2.82 281.31 -2.82 281.63 -3.34 L 284.88 -8.4 C 285.09 -8.74 285.26 -8.69 285.26 -8.29 L 285.26 -0.58 C 285.26 -0.22 285.55 0.06 285.9 0.06 C 286.26 0.06 286.54 -0.22 286.54 -0.58 Z M 275.89 -10.16 L 275.89 -10.14 Z M 286 -10.14 L 286 -10.16 Z M 303.22 -0.58 L 303.22 -4.24 C 303.22 -4.64 303.54 -4.96 303.94 -4.96 L 307.44 -4.96 C 307.79 -4.96 308.08 -5.25 308.08 -5.6 C 308.08 -5.95 307.79 -6.24 307.44 -6.24 L 303.94 -6.24 C 303.54 -6.24 303.22 -6.56 303.22 -6.96 L 303.22 -9.2 C 303.22 -9.6 303.54 -9.92 303.94 -9.92 L 308.56 -9.92 C 308.91 -9.92 309.2 -10.21 309.2 -10.56 C 309.2 -10.91 308.91 -11.2 308.56 -11.2 L 302.82 -11.2 C 302.34 -11.2 301.94 -10.8 301.94 -10.32 L 301.94 -0.58 C 301.94 -0.22 302.22 0.06 302.58 0.06 C 302.93 0.06 303.22 -0.22 303.22 -0.58 Z M 320.74 -1.2 C 318.3 -1.2 316.32 -3.18 316.32 -5.62 C 316.32 -8.02 318.3 -10 320.74 -10 C 323.15 -10 325.14 -8.02 325.14 -5.62 C 325.14 -3.18 323.15 -1.2 320.74 -1.2 Z M 320.74 0.08 C 323.86 0.08 326.42 -2.48 326.42 -5.62 C 326.42 -8.72 323.86 -11.28 320.74 -11.28 C 317.6 -11.28 315.04 -8.72 315.04 -5.62 C 315.04 -2.48 317.6 0.08 320.74 0.08 Z M 334.5 -0.58 L 334.5 -2.7 C 334.5 -3.1 334.82 -3.42 335.22 -3.42 L 336.29 -3.42 C 336.69 -3.42 337.2 -3.17 337.44 -2.85 L 339.58 -0.06 C 339.7 0.1 339.87 0.18 340.08 0.18 C 340.42 0.18 340.72 -0.1 340.72 -0.46 C 340.72 -0.59 340.67 -0.74 340.59 -0.85 L 338.88 -3.07 C 338.64 -3.39 338.74 -3.78 339.1 -3.95 C 340.27 -4.62 341.07 -5.89 341.07 -7.31 C 341.07 -9.42 339.3 -11.2 337.18 -11.2 L 334.1 -11.2 C 333.62 -11.2 333.22 -10.8 333.22 -10.32 L 333.22 -0.58 C 333.22 -0.22 333.5 0.06 333.86 0.06 C 334.21 0.06 334.5 -0.22 334.5 -0.58 Z M 334.5 -5.42 L 334.5 -9.2 C 334.5 -9.6 334.82 -9.92 335.22 -9.92 L 337.18 -9.92 C 338.67 -9.92 339.79 -8.8 339.79 -7.31 C 339.79 -5.82 338.67 -4.7 337.18 -4.7 L 335.22 -4.7 C 334.82 -4.7 334.5 -5.02 334.5 -5.42 Z M 361.25 -0.58 L 361.25 -9.2 C 361.25 -9.6 361.57 -9.92 361.97 -9.92 L 364.11 -9.92 C 364.46 -9.92 364.75 -10.21 364.75 -10.56 C 364.75 -10.91 364.46 -11.2 364.11 -11.2 L 357.1 -11.2 C 356.75 -11.2 356.46 -10.91 356.46 -10.56 C 356.46 -10.21 356.75 -9.92 357.1 -9.92 L 359.25 -9.92 C 359.65 -9.92 359.97 -9.6 359.97 -9.2 L 359.97 -0.58 C 359.97 -0.22 360.26 0.06 360.61 0.06 C 360.96 0.06 361.25 -0.22 361.25 -0.58 Z M 378.18 -1.28 L 373.55 -1.28 C 373.15 -1.28 372.83 -1.6 372.83 -2 L 372.83 -4.24 C 372.83 -4.64 373.15 -4.96 373.55 -4.96 L 377.06 -4.96 C 377.41 -4.96 377.7 -5.25 377.7 -5.6 C 377.7 -5.95 377.41 -6.24 377.06 -6.24 L 373.55 -6.24 C 373.15 -6.24 372.83 -6.56 372.83 -6.96 L 372.83 -9.2 C 372.83 -9.6 373.15 -9.92 373.55 -9.92 L 378.18 -9.92 C 378.53 -9.92 378.82 -10.21 378.82 -10.56 C 378.82 -10.91 378.53 -11.2 378.18 -11.2 L 372.43 -11.2 C 371.95 -11.2 371.55 -10.8 371.55 -10.32 L 371.55 -0.88 C 371.55 -0.4 371.95 0 372.43 0 L 378.18 0 C 378.53 0 378.82 -0.29 378.82 -0.64 C 378.82 -0.99 378.53 -1.28 378.18 -1.28 Z M 392.24 -1.28 L 387.62 -1.28 C 387.22 -1.28 386.9 -1.6 386.9 -2 L 386.9 -4.24 C 386.9 -4.64 387.22 -4.96 387.62 -4.96 L 391.12 -4.96 C 391.47 -4.96 391.76 -5.25 391.76 -5.6 C 391.76 -5.95 391.47 -6.24 391.12 -6.24 L 387.62 -6.24 C 387.22 -6.24 386.9 -6.56 386.9 -6.96 L 386.9 -9.2 C 386.9 -9.6 387.22 -9.92 387.62 -9.92 L 392.24 -9.92 C 392.59 -9.92 392.88 -10.21 392.88 -10.56 C 392.88 -10.91 392.59 -11.2 392.24 -11.2 L 386.5 -11.2 C 386.02 -11.2 385.62 -10.8 385.62 -10.32 L 385.62 -0.88 C 385.62 -0.4 386.02 0 386.5 0 L 392.24 0 C 392.59 0 392.88 -0.29 392.88 -0.64 C 392.88 -0.99 392.59 -1.28 392.24 -1.28 Z M 400.96 -0.58 L 400.96 -8.38 C 400.96 -8.78 401.14 -8.83 401.36 -8.51 L 406.83 -0.37 C 407.3 0.37 408.48 0.03 408.48 -0.88 L 408.48 -10.62 C 408.48 -10.98 408.19 -11.26 407.84 -11.26 C 407.49 -11.26 407.2 -10.98 407.2 -10.62 L 407.2 -2.82 C 407.2 -2.42 407.02 -2.37 406.8 -2.69 L 401.33 -10.83 C 400.86 -11.57 399.68 -11.23 399.68 -10.32 L 399.68 -0.58 C 399.68 -0.22 399.97 0.06 400.32 0.06 C 400.67 0.06 400.96 -0.22 400.96 -0.58 Z M 400.27 -10.13 L 400.29 -10.11 Z M 407.87 -1.09 L 407.89 -1.07 Z M 425.18 -0.78 L 421.17 -10.64 C 420.83 -11.49 419.68 -11.49 419.34 -10.64 L 415.33 -0.78 C 415.3 -0.72 415.28 -0.62 415.28 -0.53 C 415.28 -0.19 415.55 0.11 415.92 0.11 C 416.16 0.11 416.4 -0.05 416.5 -0.27 L 417.09 -1.73 C 417.23 -2.1 417.68 -2.4 418.08 -2.4 L 422.43 -2.4 C 422.83 -2.4 423.28 -2.1 423.42 -1.73 L 424.02 -0.27 C 424.11 -0.05 424.34 0.11 424.59 0.11 C 424.94 0.11 425.23 -0.18 425.23 -0.53 C 425.23 -0.61 425.22 -0.7 425.18 -0.78 Z M 418.16 -4.35 L 419.98 -8.82 C 420.13 -9.18 420.38 -9.18 420.53 -8.82 L 422.35 -4.35 C 422.5 -3.98 422.3 -3.68 421.9 -3.68 L 418.61 -3.68 C 418.21 -3.68 418.02 -3.98 418.16 -4.35 Z M 437.18 -4.98 L 440.26 -4.98 C 440.66 -4.98 440.91 -4.66 440.82 -4.27 C 440.27 -2.43 438.64 -1.2 436.61 -1.2 C 434.1 -1.2 432.19 -3.1 432.19 -5.62 C 432.19 -8.1 434.1 -10 436.61 -10 C 437.63 -10 438.51 -9.68 439.26 -9.1 C 439.39 -9.01 439.52 -8.96 439.66 -8.96 C 440 -8.96 440.3 -9.25 440.3 -9.6 C 440.3 -9.79 440.19 -10 440.05 -10.11 C 439.07 -10.85 437.89 -11.28 436.61 -11.28 C 433.47 -11.28 430.91 -8.72 430.91 -5.62 C 430.91 -2.48 433.47 0.08 436.61 0.08 C 439.65 0.08 442.13 -2.32 442.29 -5.34 C 442.3 -5.86 441.89 -6.26 441.39 -6.26 L 437.18 -6.26 C 436.83 -6.26 436.54 -5.97 436.54 -5.62 C 436.54 -5.26 436.83 -4.98 437.18 -4.98 Z M 455.71 -1.28 L 451.09 -1.28 C 450.69 -1.28 450.37 -1.6 450.37 -2 L 450.37 -4.24 C 450.37 -4.64 450.69 -4.96 451.09 -4.96 L 454.59 -4.96 C 454.94 -4.96 455.23 -5.25 455.23 -5.6 C 455.23 -5.95 454.94 -6.24 454.59 -6.24 L 451.09 -6.24 C 450.69 -6.24 450.37 -6.56 450.37 -6.96 L 450.37 -9.2 C 450.37 -9.6 450.69 -9.92 451.09 -9.92 L 455.71 -9.92 C 456.06 -9.92 456.35 -10.21 456.35 -10.56 C 456.35 -10.91 456.06 -11.2 455.71 -11.2 L 449.97 -11.2 C 449.49 -11.2 449.09 -10.8 449.09 -10.32 L 449.09 -0.88 C 449.09 -0.4 449.49 0 449.97 0 L 455.71 0 C 456.06 0 456.35 -0.29 456.35 -0.64 C 456.35 -0.99 456.06 -1.28 455.71 -1.28 Z M 464.43 -0.58 L 464.43 -2.7 C 464.43 -3.1 464.75 -3.42 465.15 -3.42 L 466.22 -3.42 C 466.62 -3.42 467.14 -3.17 467.38 -2.85 L 469.52 -0.06 C 469.63 0.1 469.81 0.18 470.02 0.18 C 470.35 0.18 470.66 -0.1 470.66 -0.46 C 470.66 -0.59 470.61 -0.74 470.53 -0.85 L 468.82 -3.07 C 468.58 -3.39 468.67 -3.78 469.04 -3.95 C 470.21 -4.62 471.01 -5.89 471.01 -7.31 C 471.01 -9.42 469.23 -11.2 467.12 -11.2 L 464.03 -11.2 C 463.55 -11.2 463.15 -10.8 463.15 -10.32 L 463.15 -0.58 C 463.15 -0.22 463.44 0.06 463.79 0.06 C 464.14 0.06 464.43 -0.22 464.43 -0.58 Z M 464.43 -5.42 L 464.43 -9.2 C 464.43 -9.6 464.75 -9.92 465.15 -9.92 L 467.12 -9.92 C 468.61 -9.92 469.73 -8.8 469.73 -7.31 C 469.73 -5.82 468.61 -4.7 467.12 -4.7 L 465.15 -4.7 C 464.75 -4.7 464.43 -5.02 464.43 -5.42 Z M 477.95 -1.86 C 478.93 -0.7 480.29 0.08 481.84 0.08 C 483.94 0.08 485.47 -1.38 485.47 -2.83 C 485.47 -4.85 483.6 -5.81 482 -6.42 C 480.53 -6.98 479.5 -7.49 479.5 -8.37 C 479.5 -9.1 480.34 -10 481.79 -10 C 482.94 -10 483.7 -9.5 484.19 -8.83 C 484.3 -8.66 484.5 -8.56 484.7 -8.56 C 485.04 -8.56 485.34 -8.85 485.34 -9.2 C 485.34 -9.33 485.3 -9.47 485.22 -9.58 C 484.53 -10.51 483.44 -11.28 481.79 -11.28 C 479.58 -11.28 478.22 -9.79 478.22 -8.37 C 478.22 -6.59 479.97 -5.82 481.55 -5.23 C 483.01 -4.67 484.19 -4.02 484.19 -2.83 C 484.19 -2.11 483.23 -1.2 481.84 -1.2 C 480.7 -1.2 479.7 -1.76 478.93 -2.67 C 478.82 -2.82 478.64 -2.9 478.45 -2.9 C 478.11 -2.9 477.81 -2.61 477.81 -2.26 C 477.81 -2.11 477.87 -1.95 477.95 -1.86 Z" stroke-linecap="round" />
</g>
</g>
</g>
</svg>